# AST/ASF file generated using VICON BodyLanguage
# -----------------------------------------------
:version 1.10
:name VICON
:units
  mass 1.0
  length 0.45
  angle deg
:documentation
   .ast/.asf automatically generated from VICON data using
   VICON BodyBuilder and BodyLanguage model FoxedUp or BRILLIANT.MOD
:root
   order TX TY TZ RX RY RZ
   axis XYZ
   position 0 0 0  
   orientation 0 0 0 
:bonedata
  begin
     id 1 
     name lhipjoint
     direction 0.521452 -0.77106 0.36545 
     length 2.0933 
     axis 0 0 0  XYZ
  end
  begin
     id 2 
     name lfemur
     direction 0.34202 -0.939693 0  
     length 6.83441  
     axis 0 0 20  XYZ
    dof rx ry rz
    limits (-160.0 20.0)
           (-70.0 70.0)
           (-60.0 70.0)
  end
  begin
     id 3 
     name ltibia
     direction 0.34202 -0.939693 0   
     length 7.28749   
     axis 0 0 20   XYZ
    dof rx
    limits (-10.0 170.0)
  end
  begin
     id 4 
     name lfoot
     direction 0.100608 -0.276418 0.955757   
     length 1.52195   
     axis -90 7.62852e-016 20   XYZ
    dof rx rz
    limits (-45.0 90.0)
           (-70.0 20.0)
  end
  begin
     id 5 
     name ltoes
     direction 1.53558e-011 -4.21907e-011 1   
     length 0.770459   
     axis -90 7.62852e-016 20   XYZ
    dof rx
    limits (-90.0 20.0)
  end
  begin
     id 6 
     name rhipjoint
     direction -0.488071 -0.788702 0.373812   
     length 2.04648  
     axis 0 0 0  XYZ 
  end
  begin
     id 7 
     name rfemur
     direction -0.34202 -0.939693 0   
     length 6.92583   
     axis 0 0 -20   XYZ
    dof rx ry rz
    limits (-160.0 20.0)
           (-70.0 70.0)
           (-70.0 60.0)
  end
  begin
     id 8 
     name rtibia
     direction -0.34202 -0.939693 0   
     length 7.41043   
     axis 0 0 -20   XYZ
    dof rx
    limits (-10.0 170.0)
 end
 begin
     id 9 
     name rfoot
     direction -0.0784433 -0.215521 0.973343   
     length 1.67708  
     axis -90 -7.62852e-016 -20   XYZ
    dof rx rz
    limits (-45.0 90.0)
           (-20.0 70.0)
  end
  begin
     id 10 
     name rtoes
     direction -1.53551e-011 -4.21842e-011 1   
     length 0.849787   
     axis -90 -7.62852e-016 -20   XYZ
    dof rx
    limits (-90.0 20.0)
  end
  begin
     id 11 
     name lowerback
     direction -0.0122332 0.997575 -0.0685192   
     length 1.98724   
     axis 0 0 0   XYZ
    dof rx ry rz
    limits (-20.0 45.0)
           (-30.0 30.0)
           (-30.0 30.0)
  end
  begin
     id 12 
     name upperback
     direction 0.0182347 0.999724 -0.0148421   
     length 1.99029   
     axis 0 0 0   XYZ
    dof rx ry rz
    limits (-20.0 45.0)
           (-30.0 30.0)
           (-30.0 30.0)
  end
  begin
     id 13 
     name thorax
     direction 0.0242908 0.99956 0.0170184   
     length 1.99573   
     axis 0 0 0   XYZ
    dof rx ry rz
    limits (-20.0 45.0)
           (-30.0 30.0)
           (-30.0 30.0)
  end
  begin
     id 14 
     name lowerneck
     direction 0.0654488 0.985533 0.156338   
     length 1.4285   
     axis 0 0 0   XYZ
    dof rx ry rz
    limits (-20.0 45.0)
           (-30.0 30.0)
           (-30.0 30.0)
  end
  begin
     id 15 
     name upperneck
     direction -0.02953 0.998556 -0.0448842   
     length 1.44709   
     axis 0 0 0   XYZ
    dof rx ry rz
    limits (-20.0 45.0)
           (-30.0 30.0)
           (-30.0 30.0)
  end
  begin
     id 16
     name head
     direction -0.0155588 0.999386 -0.0314063  
     length 1.44689  
     axis 0 0 0   XYZ
    dof rx ry rz
    limits (-20.0 45.0)
           (-30.0 30.0)
           (-30.0 30.0)
  end
  begin
     id 17 
     name lclavicle
     direction 0.968229 0.236071 -0.0824755  
     length 3.60593  
     axis 0 0 0   XYZ
    dof ry rz
    limits (-20.0 10.0)
           (0.0 20.0)
  end
  begin
     id 18 
     name lhumerus
     direction 1 -4.48968e-011 7.8138e-029   
     length 5.06035   
     axis 180 -30 -90   XYZ
    dof rx ry rz
    limits (-60.0 90.0)
           (-90.0 90.0)
           (-90.0 90.0)
  end
  begin
     id 19
     name lradius
     direction 1 -4.48967e-011 9.02887e-028   
     length 3.1478   
     axis 180 -30 -90   XYZ
    dof rx
    limits (-10.0 170.0)
  end
  begin
     id 20
     name lwrist
     direction 1 -4.48961e-011 7.20928e-028   
     length 1.5739   
     axis -5.52449e-016 90 90   XYZ
    dof ry
    limits (-180.0 0.0)
 end
  begin
     id 21 
     name lhand
     direction 1 -4.48972e-011 1.44186e-027   
     length 0.606747   
     axis -9.20027e-016 90 90   XYZ
    dof rx rz
    limits (-90.0 90.0)
           (-45.0 45.0)
  end
  begin
     id 22 
     name lfingers
     direction 1 -4.48943e-011 2.88371e-027   
     length 0.489175   
     axis -1.84005e-015 90 90   XYZ
    dof rx
    limits (0.0 90.0)
  end
  begin
     id 23
     name lthumb
     direction 0.707107 -6.34917e-011 0.707107   
     length 0.70236   
     axis -90 45 2.85299e-015   XYZ
    dof rx rz
    limits (-45.0 45.0)
           (-45.0 45.0)
  end
  begin
     id 24 
     name rclavicle
     direction -0.978165 0.207816 0.0022268   
     length 3.35425  
     axis 0 0 0   XYZ 
    dof ry rz
    limits (-10.0 20.0)
           (-20.0 0.0)
  end
  begin
     id 25 
     name rhumerus
     direction -1 -4.48964e-011 -4.02159e-027  
     length 5.12273   
     axis 180 30 90   XYZ
    dof rx ry rz
    limits (-90.0 60.0)
           (-90.0 90.0)
           (-90.0 90.0)
  end
  begin
     id 26 
     name rradius
     direction -1 -4.48966e-011 1.62746e-027   
     length 3.422   
     axis 180 30 90   XYZ
    dof rx
    limits (-10.0 170.0)
  end
  begin
     id 27 
     name rwrist
     direction -1 -4.4896e-011 7.20928e-028   
     length 1.711   
     axis -5.52449e-016 -90 -90   XYZ
    dof ry
    limits (-180.0 0.0)
  end
  begin
     id 28
     name rhand
     direction -1 -4.48979e-011 1.44186e-027   
     length 0.704599   
     axis -9.20027e-016 -90 -90   XYZ
    dof rx rz
    limits (-90.0 90.0)
           (-45.0 45.0)
  end
  begin
     id 29
     name rfingers
     direction -1 -4.48962e-011 2.88371e-027   
     length 0.568066   
     axis -1.84005e-015 -90 -90   XYZ
    dof rx
    limits (0.0 90.0)
  end
  begin
     id 30
     name rthumb
     direction -0.707107 -6.34949e-011 0.707107   
     length 0.815633   
     axis -90 -45 -2.85299e-015   XYZ
    dof rx rz
    limits (-45.0 45.0)
           (-45.0 45.0)
  end
:hierarchy
  begin
    root lhipjoint rhipjoint lowerback
    lhipjoint lfemur
    lfemur ltibia
    ltibia lfoot
    lfoot ltoes
    rhipjoint rfemur
    rfemur rtibia
    rtibia rfoot
    rfoot rtoes
    lowerback upperback
    upperback thorax
    thorax lowerneck lclavicle rclavicle
    lowerneck upperneck
    upperneck head
    lclavicle lhumerus
    lhumerus lradius
    lradius lwrist
    lwrist lhand lthumb
    lhand lfingers
    rclavicle rhumerus
    rhumerus rradius
    rradius rwrist
    rwrist rhand rthumb
    rhand rfingers
  end

#!OML:ASF E:\id_vita\Project 1\Capture day 1\Session 1\Male1.ASF
:FULLY-SPECIFIED
:DEGREES
161
root 5.08451 15.4919 -1.49002 485.937 81.4499 481.019
lowerback -5.54046 -4.70396 -11.1382
upperback -1.56546 -5.56651 -0.29324
thorax 2.49276 -2.81173 5.43711
lowerneck -6.76539 1.22813 6.80516
upperneck 3.58596 1.04308 0.137949
head 2.35892 0.635675 -1.09213
rclavicle -3.90426e-014 9.93923e-016
rhumerus -52.9945 -29.7478 -53.7658
rradius 3.01352
rwrist 30.7909
rhand -21.0196 30.5758
rfingers 7.12502
rthumb 5.35543 0.663472
lclavicle -3.90426e-014 9.93923e-016
lhumerus -2.4268 2.79295 85.6466
lradius 38.1662
lwrist 9.20984
lhand -13.9162 38.9555
lfingers 7.12502
lthumb 12.2099 68.5791
rfemur -39.3162 1.65878 9.32683
rtibia 26.4172
rfoot -11.8648 -4.15839
rtoes 6.50601
lfemur 22.6683 -2.65242 -28.6758
ltibia -1.59028e-014
lfoot -20.446 -3.62425
ltoes -8.46967
162
root 5.3176 15.4704 -1.47815 487.546 81.7457 482.707
lowerback -6.24387 -4.75308 -10.6906
upperback -1.15256 -5.55362 -0.213315
thorax 3.28659 -2.85852 5.20018
lowerneck -7.70662 1.66319 6.29003
upperneck 4.86588 1.52434 0.973995
head 2.96722 0.93128 -0.706741
rclavicle 1.04557e-013 1.07344e-014
rhumerus -52.8133 -30.3962 -53.3425
rradius 2.99674
rwrist 31.4939
rhand -21.0779 30.1675
rfingers 7.12502
rthumb 5.29913 0.253747
lclavicle 1.04557e-013 1.07344e-014
lhumerus -1.73778 2.49995 85.641
lradius 38.4916
lwrist 9.59717
lhand -13.6742 38.6702
lfingers 7.12502
lthumb 12.4433 68.2797
rfemur -39.3319 0.822703 10.4154
rtibia 28.2999
rfoot -11.3361 -2.91096
rtoes 4.55501
lfemur 23.6392 -3.07821 -28.291
ltibia 1.59028e-013
lfoot -19.5198 -4.07637
ltoes -6.5731
163
root 5.55246 15.4711 -1.46679 489.46 81.9239 484.626
lowerback -6.16085 -4.86805 -10.4038
upperback -1.38403 -5.75745 -0.00237904
thorax 3.02486 -2.93893 5.25617
lowerneck -7.53283 1.89136 6.02318
upperneck 5.20482 1.84934 1.14756
head 3.05299 1.10123 -0.586667
rclavicle 1.13991e-015 -2.78299e-015
rhumerus -53.258 -30.2575 -52.4911
rradius 3.09109
rwrist 32.0165
rhand -21.0022 30.4275
rfingers 7.12502
rthumb 5.37226 0.515577
lclavicle 1.13991e-015 -2.78299e-015
lhumerus -2.04182 2.55022 85.7589
lradius 38.7742
lwrist 9.91565
lhand -13.3395 38.1109
lfingers 7.12502
lthumb 12.7659 67.7006
rfemur -39.4895 0.137633 11.2196
rtibia 30.0223
rfoot -9.85929 -1.81634
rtoes 4.1546
lfemur 24.5232 -3.59353 -27.9897
ltibia 3.18055e-014
lfoot -18.4978 -4.55101
ltoes -5.31477
164
root 5.78731 15.4792 -1.44821 491.491 82.0418 486.627
lowerback -6.11384 -4.96592 -10.2211
upperback -1.57976 -5.92082 0.166124
thorax 2.82002 -3.00361 5.32572
lowerneck -7.35928 1.84539 6.21586
upperneck 5.21527 1.79263 0.9622
head 3.02788 1.06946 -0.684986
rclavicle 2.44692e-014 -7.7526e-015
rhumerus -53.5782 -30.3713 -51.7286
rradius 3.09538
rwrist 32.3959
rhand -21.103 30.6298
rfingers 7.12502
rthumb 5.27494 0.715474
lclavicle 2.44692e-014 -7.7526e-015
lhumerus -2.44079 2.35193 85.8331
lradius 39.1896
lwrist 10.3536
lhand -13.1927 37.6335
lfingers 7.12502
lthumb 12.9074 67.2144
rfemur -39.6682 -0.137093 11.7068
rtibia 31.447
rfoot -8.55265 -0.881232
rtoes 4.97072
lfemur 25.2982 -4.14099 -27.7437
ltibia 3.18055e-014
lfoot -17.6085 -4.67484
ltoes -6.84798
165
root 6.02028 15.4857 -1.42859 493.027 82.3264 487.967
lowerback -6.2929 -4.98812 -9.91789
upperback -1.69827 -5.95976 0.321672
thorax 2.7885 -3.01619 5.30817
lowerneck -7.57979 1.9183 6.72103
upperneck 5.36299 1.85144 0.411523
head 3.14087 1.09176 -0.951165
rclavicle -1.39274e-014 1.19271e-015
rhumerus -53.6621 -30.8321 -51.168
rradius 3.1417
rwrist 32.7053
rhand -21.399 30.1339
rfingers 7.12502
rthumb 4.98905 0.212657
lclavicle -1.39274e-014 1.19271e-015
lhumerus -2.74253 2.10204 85.882
lradius 39.5851
lwrist 10.808
lhand -13.2176 36.5928
lfingers 7.12502
lthumb 12.8835 66.1752
rfemur -39.9369 -0.0230221 12.1337
rtibia 32.5731
rfoot -7.97038 -0.31966
rtoes 4.77643
lfemur 25.8385 -4.51358 -27.4376
ltibia -1.90833e-014
lfoot -16.1238 -4.97106
ltoes -7.42249
166
root 6.25327 15.4924 -1.41204 494.219 82.974 488.981
lowerback -6.55104 -4.85135 -9.25445
upperback -1.78473 -5.80299 0.472029
thorax 2.76722 -2.9313 5.10283
lowerneck -8.01692 1.90717 6.86783
upperneck 5.74979 1.77826 0.395928
head 3.36004 1.06949 -0.984707
rclavicle -1.33801e-013 -5.4467e-014
rhumerus -53.774 -31.4837 -50.6068
rradius 3.18152
rwrist 32.8983
rhand -21.5752 29.4535
rfingers 7.12502
rthumb 4.81892 -0.471662
lclavicle -1.33801e-013 -5.4467e-014
lhumerus -2.90464 1.90373 86.0032
lradius 39.6604
lwrist 11.0881
lhand -13.1999 35.7904
lfingers 7.12502
lthumb 12.9005 65.3716
rfemur -40.042 0.482617 12.7422
rtibia 33.4305
rfoot -7.78332 -0.0046513
rtoes 2.76298
lfemur 26.4016 -4.59335 -26.8877
ltibia -4.13472e-014
lfoot -13.8668 -5.84417
ltoes -4.76771
167
root 6.49741 15.4986 -1.39472 497.684 83.6689 492.555
lowerback -6.66235 -4.74877 -8.40938
upperback -1.85449 -5.72424 0.680129
thorax 2.68495 -2.88391 4.85777
lowerneck -8.02255 1.94236 7.08327
upperneck 6.1478 1.78857 0.471118
head 3.50374 1.09469 -0.997234
rclavicle -5.67779e-014 -2.8625e-014
rhumerus -54.0049 -31.9567 -49.945
rradius 3.18458
rwrist 32.9135
rhand -21.5847 29.5104
rfingers 7.12502
rthumb 4.80982 -0.41503
lclavicle -5.67779e-014 -2.8625e-014
lhumerus -3.33962 1.86506 86.1678
lradius 39.706
lwrist 11.2659
lhand -12.9892 36.3363
lfingers 7.12502
lthumb 13.1036 65.9046
rfemur -39.5433 1.03144 13.5215
rtibia 34.1238
rfoot -7.39498 0.382257
rtoes 2.24703
lfemur 26.1813 -4.77045 -26.1456
ltibia 2.3109
lfoot -12.5879 -6.28235
ltoes -1.93038
168
root 6.74458 15.5057 -1.3796 502.13 84.1468 497.184
lowerback -6.65403 -4.79423 -7.74191
upperback -1.95932 -5.8433 0.941454
thorax 2.55132 -2.93381 4.75246
lowerneck -8.06988 2.07407 6.94439
upperneck 6.71884 1.95543 0.585064
head 3.71592 1.19445 -0.923854
rclavicle -1.12438e-014 3.18055e-015
rhumerus -54.1137 -32.163 -49.412
rradius 3.32792
rwrist 32.8444
rhand -21.7564 29.865
rfingers 7.12502
rthumb 4.64397 -0.0640625
lclavicle -1.12438e-014 3.18055e-015
lhumerus -4.13096 2.10062 86.257
lradius 39.8778
lwrist 11.4504
lhand -12.7333 37.1603
lfingers 7.12502
lthumb 13.3503 66.7126
rfemur -38.8271 1.14609 14.357
rtibia 34.8053
rfoot -6.75225 1.30726
rtoes 2.9439
lfemur 24.273 -5.06919 -25.5658
ltibia 8.15729
lfoot -12.8263 -5.96447
ltoes -0.337118
169
root 6.98621 15.5198 -1.36617 505.201 84.5128 500.319
lowerback -6.71786 -4.82076 -7.23984
upperback -2.03089 -5.91373 1.10756
thorax 2.49066 -2.9632 4.63758
lowerneck -8.11019 2.14041 7.06059
upperneck 6.82539 2.03739 0.422343
head 3.77003 1.23341 -0.994027
rclavicle 4.7932e-014 -1.59028e-015
rhumerus -54.1218 -32.5969 -49.0519
rradius 3.69372
rwrist 32.836
rhand -21.791 30.0967
rfingers 7.12502
rthumb 4.61055 0.166892
lclavicle 4.7932e-014 -1.59028e-015
lhumerus -4.80303 2.27438 86.2959
lradius 39.9085
lwrist 11.6055
lhand -12.7469 37.1833
lfingers 7.12502
lthumb 13.3372 66.7364
rfemur -38.2591 0.907817 15.2033
rtibia 35.5334
rfoot -6.37071 2.58071
rtoes 2.47777
lfemur 23.055 -5.31795 -25.2172
ltibia 12.091
lfoot -11.3796 -6.18697
ltoes 1.98255
170
root 7.22326 15.545 -1.35039 510.003 84.8342 505.211
lowerback -6.70389 -4.79363 -6.6419
upperback -2.08148 -5.92412 1.25013
thorax 2.38819 -2.96209 4.45736
lowerneck -8.23645 2.13093 7.2144
upperneck 6.93814 2.00047 0.339688
head 3.83847 1.21913 -1.05095
rclavicle 5.82439e-014 1.19271e-014
rhumerus -54.2998 -33.2241 -48.5766
rradius 4.20799
rwrist 32.9527
rhand -21.5377 30.1227
rfingers 7.12502
rthumb 4.85516 0.19828
lclavicle 5.82439e-014 1.19271e-014
lhumerus -5.39537 2.32956 86.4287
lradius 39.8358
lwrist 11.7027
lhand -12.7637 36.9802
lfingers 7.12502
lthumb 13.321 66.5345
rfemur -37.6281 0.688284 16.1741
rtibia 36.2752
rfoot -7.39876 1.65917
rtoes -1.61601
lfemur 21.8001 -5.15677 -24.5411
ltibia 15.8027
lfoot -9.26027 -7.12096
ltoes 5.92606
171
root 7.45226 15.577 -1.32967 516.934 85.1101 512.246
lowerback -6.49876 -4.71373 -5.99365
upperback -2.19727 -5.88023 1.42906
thorax 2.10408 -2.92773 4.3115
lowerneck -8.51578 2.31781 7.4317
upperneck 7.76926 2.17888 0.420772
head 4.2032 1.34285 -1.04847
rclavicle 7.72775e-015 -4.77083e-015
rhumerus -54.8962 -33.8327 -47.8184
rradius 5.02045
rwrist 33.0705
rhand -21.2947 30.1846
rfingers 7.12502
rthumb 5.0898 0.265677
lclavicle 7.72775e-015 -4.77083e-015
lhumerus -6.15392 2.30086 86.6569
lradius 39.7996
lwrist 11.7806
lhand -12.5223 37.2833
lfingers 7.12502
lthumb 13.5536 66.8222
rfemur -36.9751 0.683236 17.1892
rtibia 36.9898
rfoot -8.40994 0.685718
rtoes -0.860387
lfemur 20.3745 -4.73747 -23.5332
ltibia 19.4879
lfoot -6.87668 -8.68104
ltoes 11.2676
172
root 7.66843 15.6045 -1.30268 521.734 85.1137 517.15
lowerback -6.17239 -4.70074 -5.74529
upperback -2.33156 -5.90252 1.55358
thorax 1.7752 -2.92648 4.33373
lowerneck -8.14794 2.09409 7.35415
upperneck 7.21476 1.93119 0.43839
head 3.91797 1.2023 -1.04695
rclavicle 2.23384e-014 8.34896e-015
rhumerus -55.5098 -34.4136 -47.0889
rradius 5.8989
rwrist 33.2149
rhand -21.1461 30.3552
rfingers 7.12502
rthumb 5.23325 0.439787
lclavicle 2.23384e-014 8.34896e-015
lhumerus -6.96975 2.31372 86.8453
lradius 39.6762
lwrist 11.8656
lhand -12.4343 37.5378
lfingers 7.12502
lthumb 13.6385 67.071
rfemur -36.3082 0.652631 17.8574
rtibia 37.6306
rfoot -9.21987 0.147098
rtoes -0.52523
lfemur 18.7713 -4.2124 -22.6848
ltibia 23.2506
lfoot -4.49611 -10.3977
ltoes 16.0824
173
root 7.89137 15.6255 -1.28495 521.647 85.2938 517.105
lowerback -6.11881 -4.64732 -5.71041
upperback -2.39894 -5.83764 1.60731
thorax 1.67007 -2.88922 4.3843
lowerneck -8.25635 2.25451 7.18591
upperneck 7.5884 2.1362 0.588287
head 4.07527 1.31671 -0.952
rclavicle 2.04997e-015 -3.97569e-016
rhumerus -55.7102 -35.0026 -46.5266
rradius 6.45959
rwrist 33.5603
rhand -21.0973 30.6694
rfingers 7.12502
rthumb 5.28045 0.755194
lclavicle 2.04997e-015 -3.97569e-016
lhumerus -7.68958 2.57158 87.0526
lradius 39.362
lwrist 11.8595
lhand -12.5242 37.7014
lfingers 7.12502
lthumb 13.5518 67.2404
rfemur -35.6447 0.690696 18.1787
rtibia 38.166
rfoot -10.0136 -0.0531202
rtoes -1.56434
lfemur 17.1584 -3.5065 -22.3408
ltibia 27.0314
lfoot -2.46305 -11.4141
ltoes 18.3806
174
root 8.10863 15.655 -1.2661 523.319 85.2037 518.877
lowerback -5.85777 -4.61689 -5.62735
upperback -2.39947 -5.81954 1.64467
thorax 1.51841 -2.87709 4.39977
lowerneck -8.42552 2.15598 7.26903
upperneck 7.44241 1.9974 0.396557
head 4.05657 1.23699 -1.04029
rclavicle 4.68386e-015 1.07344e-014
rhumerus -55.8265 -35.9279 -45.985
rradius 6.9547
rwrist 34.195
rhand -21.1877 31.3022
rfingers 7.12502
rthumb 5.1931 1.38585
lclavicle 4.68386e-015 1.07344e-014
lhumerus -8.24904 2.61883 87.2538
lradius 38.9596
lwrist 11.9495
lhand -12.4811 38.0572
lfingers 7.12502
lthumb 13.5933 67.5934
rfemur -34.7964 0.571835 18.5208
rtibia 38.5462
rfoot -10.6253 -0.558157
rtoes -2.3973
lfemur 15.5303 -3.13035 -21.9746
ltibia 30.817
lfoot -0.839564 -12.0999
ltoes 19.961
